HIERARCHY
ROOT Hips
{
    OFFSET 0.000000 0.000000 0.000000
    CHANNELS 6 Xposition Yposition Zposition Zrotation Xrotation Yrotation
    JOINT Spine
    {
        OFFSET -0.000000 14.517291 0.000000
        CHANNELS 3 Zrotation Xrotation Yrotation
        JOINT Spine1
        {
            OFFSET -0.000000 37.558300 0.000000
            CHANNELS 3 Zrotation Xrotation Yrotation
            JOINT Neck
            {
                OFFSET -0.000000 37.404057 3.400369
                CHANNELS 3 Zrotation Xrotation Yrotation
                JOINT Head
                {
                    OFFSET -0.000000 24.785618 -3.540803
                    CHANNELS 3 Zrotation Xrotation Yrotation
                    End Site
                    {
                        OFFSET -0.000000 35.408028 0.000000
                    }
                }
            }
            JOINT LeftShoulder
            {
                OFFSET 6.992933 33.973492 -0.192664
                CHANNELS 3 Zrotation Xrotation Yrotation
                JOINT LeftArm
                {
                    OFFSET 21.527611 0.000000 0.000000
                    CHANNELS 3 Zrotation Xrotation Yrotation
                    JOINT LeftForeArm
                    {
                        OFFSET 56.353916 0.000000 0.000000
                        CHANNELS 3 Zrotation Xrotation Yrotation
                        JOINT LeftHand
                        {
                            OFFSET 47.774071 0.000000 0.000000
                            CHANNELS 3 Zrotation Xrotation Yrotation
                            End Site
                            {
                                OFFSET 26.556021 0.000000 0.000000
                            }
                        }
                    }
                }
            }
            JOINT RightShoulder
            {
                OFFSET -7.065357 33.973492 -0.192664
                CHANNELS 3 Zrotation Xrotation Yrotation
                JOINT RightArm
                {
                    OFFSET -21.527611 0.000000 0.000000
                    CHANNELS 3 Zrotation Xrotation Yrotation
                    JOINT RightForeArm
                    {
                        OFFSET -56.353916 0.000000 0.000000
                        CHANNELS 3 Zrotation Xrotation Yrotation
                        JOINT RightHand
                        {
                            OFFSET -47.774071 0.000000 0.000000
                            CHANNELS 3 Zrotation Xrotation Yrotation
                            End Site
                            {
                                OFFSET -26.556021 0.000000 0.000000
                            }
                        }
                    }
                }
            }
        }
    }
    JOINT LeftUpLeg
    {
        OFFSET 17.704014 0.000000 0.000000
        CHANNELS 3 Zrotation Xrotation Yrotation
        JOINT LeftLeg
        {
            OFFSET -0.000000 -81.181816 0.000000
            CHANNELS 3 Zrotation Xrotation Yrotation
            JOINT LeftFoot
            {
                OFFSET -0.000000 -62.821102 0.000000
                CHANNELS 3 Zrotation Xrotation Yrotation
                JOINT LeftToeBase
                {
                    OFFSET -0.000000 -11.507608 26.556021
                    CHANNELS 3 Zrotation Xrotation Yrotation
                    End Site
                    {
                        OFFSET -0.000000 0.000000 7.081605
                    }
                }
            }
        }
    }
    JOINT RightUpLeg
    {
        OFFSET -17.704014 0.000000 0.000000
        CHANNELS 3 Zrotation Xrotation Yrotation
        JOINT RightLeg
        {
            OFFSET -0.000000 -81.181816 0.000000
            CHANNELS 3 Zrotation Xrotation Yrotation
            JOINT RightFoot
            {
                OFFSET -0.000000 -62.821102 0.000000
                CHANNELS 3 Zrotation Xrotation Yrotation
                JOINT RightToeBase
                {
                    OFFSET -0.000000 -11.507608 26.556021
                    CHANNELS 3 Zrotation Xrotation Yrotation
                    End Site
                    {
                        OFFSET -0.000000 0.000000 7.081605
                    }
                }
            }
        }
    }
}
MOTION
Frames:    13
Frame Time:    0.008333
26.060015    155.264938    -35.607265    0.580941    -1.705371    -44.562153    2.321897    -0.264886    2.511310    1.713606    -1.351972    0.855361    14.465709    2.512520    13.548008    -10.394993    8.478070    11.575500    9.567367    -0.677183    -16.200701    -11.831546    -14.110840    -35.869530    20.508722    -43.574219    -11.268826    -22.692156    -36.114048    -36.921215    -6.740287    4.260797    -0.521302    34.387127    9.467878    80.989960    3.584681    -7.598624    100.993980    11.767569    -9.361246    24.548601    17.616627    -19.835535    5.168610    -12.763260    21.451967    -3.894287    -7.569519    -0.961363    37.661678    0.000000    0.000000    0.000000    -16.692101    0.846482    -6.652682    7.570847    30.813738    -2.285893    5.029059    -22.994213    -16.734411    0.000000    0.000000    0.000000    
26.145660    155.236130    -35.627800    0.567731    -1.711720    -44.648994    2.283694    -0.246692    2.441498    1.736769    -1.333209    0.832155    14.489633    2.524667    13.550693    -10.452337    8.515197    11.576427    9.528788    -0.603028    -16.330418    -12.012930    -14.514801    -36.338299    20.140999    -43.303528    -11.830253    -22.535196    -35.788174    -37.016647    -6.749897    4.230175    -0.508394    34.368053    9.468065    81.116531    3.579523    -7.625662    100.974548    11.757936    -9.384084    24.535290    17.644831    -19.850843    5.276447    -12.768286    21.536301    -3.945048    -7.546321    -1.001961    37.676731    0.000000    0.000000    0.000000    -16.746044    0.753840    -6.668947    7.593231    30.928917    -2.246176    5.032403    -23.006124    -16.678986    0.000000    0.000000    0.000000    
26.232100    155.208771    -35.655788    0.561088    -1.720883    -44.751629    2.257993    -0.228063    2.386806    1.706031    -1.309769    0.813384    14.578843    2.541120    13.547371    -10.564931    8.543352    11.558788    9.543834    -0.532300    -16.460619    -11.922898    -14.250931    -36.685211    20.333952    -43.460457    -12.086084    -22.894020    -35.756680    -37.291290    -6.719654    4.209720    -0.508337    34.342213    9.458275    81.246376    3.562099    -7.650248    100.967186    11.756428    -9.392529    24.485064    17.671339    -19.868700    5.405955    -12.772418    21.626255    -3.974748    -7.509487    -1.025817    37.688171    0.000000    0.000000    0.000000    -16.803377    0.643764    -6.680240    7.601989    31.056639    -2.209036    5.055635    -23.024912    -16.596266    0.000000    0.000000    0.000000    
26.334423    155.178970    -35.658985    0.562132    -1.735533    -44.860382    2.253232    -0.241293    2.328897    1.661085    -1.243341    0.792471    14.605597    2.509110    13.560469    -10.566927    8.625660    11.572391    9.553724    -0.462690    -16.575024    -12.270072    -16.183870    -36.664215    16.867088    -42.609570    -14.761548    -22.140919    -35.004642    -37.283405    -6.713028    4.184053    -0.490963    34.325359    9.452173    81.372597    3.514729    -7.696510    100.950905    11.788597    -9.376456    24.457005    17.676447    -19.872757    5.522428    -12.770541    21.696930    -4.032090    -7.473766    -1.070630    37.712444    0.000000    0.000000    0.000000    -16.889751    0.535785    -6.696598    7.632171    31.177258    -2.165027    5.045800    -23.027912    -16.523287    0.000000    0.000000    0.000000    
26.424540    155.152954    -35.686649    0.559912    -1.743230    -44.976292    2.191546    -0.222731    2.272002    1.709764    -1.225786    0.773845    14.587989    2.476220    13.571873    -10.543382    8.715244    11.592176    9.510544    -0.423098    -16.678022    -12.093419    -14.432048    -37.415504    19.954811    -43.425980    -13.131964    -23.142521    -35.483639    -37.534233    -6.728596    4.146305    -0.480259    34.308926    9.466839    81.491440    3.450908    -7.733898    100.946800    11.659828    -9.353803    24.561218    17.704630    -19.878571    5.648932    -12.779629    21.762480    -4.044365    -7.456784    -1.102747    37.717800    0.000000    0.000000    0.000000    -16.953018    0.413563    -6.652372    7.681167    31.304123    -2.156899    5.039285    -23.043694    -16.482805    0.000000    0.000000    0.000000    
26.515314    155.136124    -35.710098    0.566130    -1.751394    -45.089104    2.156027    -0.204865    2.201554    1.684581    -1.220931    0.750197    14.640646    2.464513    13.588535    -10.559181    8.800384    11.608191    9.526380    -0.377575    -16.765448    -11.791803    -13.606102    -37.689480    20.690029    -43.743214    -12.988946    -23.403103    -35.648067    -37.887516    -6.690057    4.087845    -0.419568    34.275654    9.483054    81.540390    3.454083    -7.745979    100.982025    11.668518    -9.370819    24.557350    17.717024    -19.884695    5.777150    -12.772461    21.818773    -4.079785    -7.428586    -1.114262    37.729496    0.000000    0.000000    0.000000    -17.018353    0.294552    -6.620930    7.708489    31.414324    -2.136887    5.042254    -23.040674    -16.437372    0.000000    0.000000    0.000000    
26.605978    155.115341    -35.729809    0.576732    -1.760534    -45.194794    2.112078    -0.201826    2.135194    1.677149    -1.197425    0.727627    14.678673    2.451061    13.583904    -10.592208    8.872561    11.601311    9.520075    -0.304379    -16.857271    -12.192655    -14.358154    -38.222260    20.058647    -43.301136    -13.636849    -23.388788    -35.115158    -37.918190    -6.672417    4.088696    -0.400611    34.256126    9.467722    81.645134    3.453478    -7.756343    101.026680    11.708976    -9.377660    24.532240    17.724529    -19.898447    5.910052    -12.765050    21.880219    -4.118898    -7.427928    -1.144572    37.757782    0.000000    0.000000    0.000000    -17.089087    0.179370    -6.599355    7.737216    31.521597    -2.098386    5.043461    -23.052221    -16.388649    0.000000    0.000000    0.000000    
26.701015    155.096466    -35.748268    0.593032    -1.768990    -45.309597    2.066033    -0.200385    2.073956    1.693665    -1.170282    0.707021    14.699054    2.448503    13.584832    -10.652261    8.926587    11.600611    9.429694    -0.185153    -16.965057    -12.167400    -14.487731    -38.596062    19.963152    -43.205360    -13.930873    -23.520996    -34.894173    -38.131462    -6.696800    4.075196    -0.398001    34.257065    9.486436    81.770996    3.449332    -7.770587    101.077675    11.779305    -9.382009    24.471407    17.727304    -19.908520    6.029645    -12.759855    21.926529    -4.118382    -7.388202    -1.146580    37.748199    0.000000    0.000000    0.000000    -17.167049    0.057347    -6.541621    7.793195    31.618362    -2.112421    5.023798    -23.053232    -16.347324    0.000000    0.000000    0.000000    
26.796017    155.079956    -35.760517    0.599380    -1.782375    -45.435978    2.037001    -0.184530    2.010763    1.689006    -1.153493    0.685721    14.720660    2.433513    13.611420    -10.679012    9.012086    11.630048    9.403372    -0.124853    -17.057604    -12.233405    -14.508916    -38.953148    20.008110    -43.058666    -14.157630    -23.729572    -34.586945    -38.346680    -6.714533    4.083454    -0.392535    34.266415    9.490822    81.904350    3.443444    -7.773517    101.110512    11.808520    -9.379395    24.423405    17.730032    -19.904469    6.148737    -12.751107    21.978210    -4.109753    -7.370823    -1.168909    37.754696    0.000000    0.000000    0.000000    -17.239895    -0.056668    -6.483558    7.830120    31.715832    -2.110768    5.043813    -23.046133    -16.285658    0.000000    0.000000    0.000000    
26.896137    155.063705    -35.779285    0.611813    -1.780710    -45.559010    2.018706    -0.185324    1.948393    1.668522    -1.135333    0.664469    14.767836    2.454308    13.626648    -10.725340    9.050521    11.643417    9.392993    -0.076448    -17.145304    -12.329311    -14.544020    -39.334797    20.036907    -42.986927    -14.366750    -23.916292    -34.377476    -38.541977    -6.705412    4.047669    -0.373375    34.259506    9.514734    81.973457    3.439188    -7.781755    101.148483    11.808364    -9.387244    24.403099    17.745956    -19.924778    6.256143    -12.754275    22.038561    -4.094926    -7.350501    -1.187267    37.755146    0.000000    0.000000    0.000000    -17.302456    -0.189261    -6.428012    7.867424    31.812740    -2.135623    5.051816    -23.037071    -16.213907    0.000000    0.000000    0.000000    
26.989630    155.046936    -35.799587    0.606967    -1.771694    -45.682720    2.019993    -0.181572    1.892253    1.641947    -1.107513    0.645087    14.816631    2.450876    13.643074    -10.765227    9.104423    11.656521    9.413117    -0.043391    -17.220995    -12.468232    -14.588500    -39.712097    20.044235    -42.823006    -14.589589    -24.075447    -34.066620    -38.760719    -6.682497    3.982303    -0.355458    34.235470    9.564375    82.008232    3.423725    -7.811247    101.217201    11.802290    -9.402025    24.424753    17.786018    -19.941092    6.340882    -12.775182    22.101048    -4.057635    -7.326310    -1.218958    37.759544    0.000000    0.000000    0.000000    -17.340986    -0.308484    -6.369916    7.896276    31.899086    -2.116090    5.049181    -23.022530    -16.190502    0.000000    0.000000    0.000000    
27.083666    155.033035    -35.821022    0.603969    -1.760568    -45.813713    2.013980    -0.151494    1.832436    1.632781    -1.119153    0.625375    14.863013    2.451257    13.660558    -10.827170    9.161397    11.670537    9.429822    -0.020338    -17.298296    -12.572235    -14.535876    -40.017838    20.094757    -42.711014    -14.815041    -24.243023    -33.801468    -38.998165    -6.668216    4.002321    -0.351145    34.218563    9.553305    82.115700    3.421785    -7.818666    101.263649    11.826372    -9.404376    24.432438    17.824226    -19.958357    6.439454    -12.790846    22.170593    -4.011098    -7.291031    -1.231768    37.748657    0.000000    0.000000    0.000000    -17.373163    -0.440574    -6.284552    7.919193    31.991724    -2.126555    5.074232    -23.010942    -16.140152    0.000000    0.000000    0.000000    
27.176533    155.013901    -35.841499    0.605076    -1.752846    -45.954105    1.990638    -0.113754    1.795393    1.645884    -1.151854    0.613844    14.895578    2.445007    13.665640    -10.875036    9.230927    11.674584    9.436378    0.038190    -17.404577    -12.677625    -14.548294    -40.306427    20.119917    -42.530869    -15.021404    -24.514902    -33.427040    -39.253437    -6.672305    4.027568    -0.378842    34.248604    9.541297    82.214119    3.471068    -7.754350    101.309761    11.811735    -9.405516    24.440771    17.861454    -19.973314    6.523879    -12.810843    22.234539    -3.959762    -7.280552    -1.265463    37.769997    0.000000    0.000000    0.000000    -17.412718    -0.576324    -6.208360    7.946807    32.089474    -2.111074    5.066090    -22.999893    -16.120464    0.000000    0.000000    0.000000    
